<svg width="20" height="20" viewBox="0 0 20 20" fill="none" xmlns="http://www.w3.org/2000/svg">
<mask id="mask0_1315_798" style="mask-type:alpha" maskUnits="userSpaceOnUse" x="0" y="0" width="20" height="20">
<rect width="20" height="20" fill="white"/>
</mask>
<g mask="url(#mask0_1315_798)">
<g filter="url(#filter0_d_1315_798)">
<path fill-rule="evenodd" clip-rule="evenodd" d="M5.33162 14.3799C5.04762 14.0209 4.70262 13.2869 4.08862 12.3959C3.74062 11.8919 2.87762 10.9429 2.62062 10.4609C2.39762 10.0349 2.42162 9.84395 2.47462 9.49095C2.56862 8.86295 3.21262 8.37395 3.89962 8.43995C4.41862 8.48895 4.85862 8.83195 5.25462 9.15595C5.49362 9.35095 5.78762 9.72995 5.96462 9.94395C6.12762 10.1399 6.16762 10.2209 6.34162 10.4529C6.57162 10.7599 6.64362 10.9119 6.55562 10.5739C6.48462 10.0779 6.36862 9.23095 6.20062 8.48195C6.07262 7.91395 6.04162 7.82495 5.91962 7.38895C5.79062 6.92495 5.72462 6.59995 5.60362 6.10795C5.51962 5.75995 5.36862 5.04895 5.32762 4.64895C5.27062 4.10195 5.24062 3.20995 5.59162 2.79995C5.86662 2.47895 6.49762 2.38195 6.88862 2.57995C7.40062 2.83895 7.69162 3.58295 7.82462 3.87995C8.06362 4.41395 8.21162 5.03095 8.34062 5.84095C8.50462 6.87195 8.80662 8.30295 8.81662 8.60395C8.84062 8.23495 8.74862 7.45795 8.81262 7.10395C8.87062 6.78295 9.14062 6.40995 9.47862 6.30895C9.76462 6.22395 10.0996 6.19295 10.3946 6.25395C10.7076 6.31795 11.0376 6.54195 11.1606 6.75295C11.5226 7.37695 11.5296 8.65195 11.5446 8.58395C11.6306 8.20795 11.6156 7.35495 11.8286 6.99995C11.9686 6.76595 12.3256 6.55495 12.5156 6.52095C12.8096 6.46895 13.1706 6.45295 13.4796 6.51295C13.7286 6.56195 14.0656 6.85795 14.1566 6.99995C14.3746 7.34395 14.4986 8.31695 14.5356 8.65795C14.5506 8.79895 14.6096 8.26595 14.8286 7.92195C15.2346 7.28295 16.6716 7.15895 16.7266 8.56095C16.7516 9.21495 16.7466 9.18495 16.7466 9.62495C16.7466 10.1419 16.7346 10.4529 16.7066 10.8269C16.6756 11.2269 16.5896 12.1309 16.4646 12.5689C16.3786 12.8699 16.0936 13.5469 15.8126 13.9529C15.8126 13.9529 14.7386 15.2029 14.6216 15.7659C14.5036 16.3279 14.5426 16.3319 14.5196 16.7309C14.4966 17.1289 14.6406 17.6529 14.6406 17.6529C14.6406 17.6529 13.8386 17.7569 13.4066 17.6879C13.0156 17.6249 12.5316 16.8469 12.4066 16.6089C12.2346 16.2809 11.8676 16.3439 11.7246 16.5859C11.4996 16.9689 11.0156 17.6559 10.6736 17.6989C10.0056 17.7829 8.61962 17.7299 7.53462 17.7189C7.53462 17.7189 7.71962 16.7079 7.30762 16.3609C7.00262 16.1019 6.47762 15.5769 6.16362 15.3009L5.33162 14.3799Z" fill="black" fill-opacity="0.01"/>
</g>
<g filter="url(#filter1_d_1315_798)">
<path fill-rule="evenodd" clip-rule="evenodd" d="M5.33162 14.3799C5.04762 14.0209 4.70262 13.2869 4.08862 12.3959C3.74062 11.8919 2.87762 10.9429 2.62062 10.4609C2.39762 10.0349 2.42162 9.84395 2.47462 9.49095C2.56862 8.86295 3.21262 8.37395 3.89962 8.43995C4.41862 8.48895 4.85862 8.83195 5.25462 9.15595C5.49362 9.35095 5.78762 9.72995 5.96462 9.94395C6.12762 10.1399 6.16762 10.2209 6.34162 10.4529C6.57162 10.7599 6.64362 10.9119 6.55562 10.5739C6.48462 10.0779 6.36862 9.23095 6.20062 8.48195C6.07262 7.91395 6.04162 7.82495 5.91962 7.38895C5.79062 6.92495 5.72462 6.59995 5.60362 6.10795C5.51962 5.75995 5.36862 5.04895 5.32762 4.64895C5.27062 4.10195 5.24062 3.20995 5.59162 2.79995C5.86662 2.47895 6.49762 2.38195 6.88862 2.57995C7.40062 2.83895 7.69162 3.58295 7.82462 3.87995C8.06362 4.41395 8.21162 5.03095 8.34062 5.84095C8.50462 6.87195 8.80662 8.30295 8.81662 8.60395C8.84062 8.23495 8.74862 7.45795 8.81262 7.10395C8.87062 6.78295 9.14062 6.40995 9.47862 6.30895C9.76462 6.22395 10.0996 6.19295 10.3946 6.25395C10.7076 6.31795 11.0376 6.54195 11.1606 6.75295C11.5226 7.37695 11.5296 8.65195 11.5446 8.58395C11.6306 8.20795 11.6156 7.35495 11.8286 6.99995C11.9686 6.76595 12.3256 6.55495 12.5156 6.52095C12.8096 6.46895 13.1706 6.45295 13.4796 6.51295C13.7286 6.56195 14.0656 6.85795 14.1566 6.99995C14.3746 7.34395 14.4986 8.31695 14.5356 8.65795C14.5506 8.79895 14.6096 8.26595 14.8286 7.92195C15.2346 7.28295 16.6716 7.15895 16.7266 8.56095C16.7516 9.21495 16.7466 9.18495 16.7466 9.62495C16.7466 10.1419 16.7346 10.4529 16.7066 10.8269C16.6756 11.2269 16.5896 12.1309 16.4646 12.5689C16.3786 12.8699 16.0936 13.5469 15.8126 13.9529C15.8126 13.9529 14.7386 15.2029 14.6216 15.7659C14.5036 16.3279 14.5426 16.3319 14.5196 16.7309C14.4966 17.1289 14.6406 17.6529 14.6406 17.6529C14.6406 17.6529 13.8386 17.7569 13.4066 17.6879C13.0156 17.6249 12.5316 16.8469 12.4066 16.6089C12.2346 16.2809 11.8676 16.3439 11.7246 16.5859C11.4996 16.9689 11.0156 17.6559 10.6736 17.6989C10.0056 17.7829 8.61962 17.7299 7.53462 17.7189C7.53462 17.7189 7.71962 16.7079 7.30762 16.3609C7.00262 16.1019 6.47762 15.5769 6.16362 15.3009L5.33162 14.3799Z" fill="black" fill-opacity="0.01"/>
</g>
<path fill-rule="evenodd" clip-rule="evenodd" d="M14.7241 7.47144C15.0444 7.18224 15.5214 7.03673 15.9664 7.10544C16.6234 7.20691 17.0693 7.73295 17.1012 8.5466C17.1161 8.93483 17.1205 9.08705 17.1216 9.24063C17.122 9.29684 17.122 9.34233 17.1217 9.46258C17.1215 9.53601 17.1215 9.53601 17.1215 9.62493C17.1215 10.1318 17.1104 10.455 17.0804 10.8559C17.0256 11.5626 16.9365 12.2815 16.8251 12.6719C16.709 13.0781 16.3932 13.7729 16.0969 14.1973C16.0616 14.2384 15.9982 14.3141 15.9161 14.4154C15.7792 14.5844 15.6423 14.761 15.515 14.9358C15.448 15.028 15.3854 15.1173 15.3281 15.2028C15.1358 15.4898 15.0137 15.7218 14.9885 15.843C14.9299 16.1223 14.9117 16.2503 14.9065 16.3852C14.9051 16.4264 14.9051 16.4264 14.904 16.4735C14.9013 16.6 14.8995 16.6548 14.8939 16.7526C14.8906 16.8087 14.8916 16.8736 14.8967 16.9452C14.9048 17.0583 14.9225 17.1824 14.947 17.3095C14.9681 17.4191 14.9891 17.5061 15.0021 17.5536L15.1164 17.9694L14.6887 18.0248C14.6276 18.0327 14.5252 18.0443 14.3967 18.0558C14.2264 18.071 14.0575 18.0815 13.898 18.0852C13.6841 18.0901 13.4994 18.0825 13.3468 18.0582C12.8665 17.9808 12.3908 17.3855 12.0744 16.7831C11.6431 17.4648 11.1749 18.0138 10.7203 18.071C10.295 18.1245 9.70235 18.13 8.54206 18.11C8.43491 18.1081 8.43491 18.1081 8.32811 18.1062C7.90126 18.0986 7.74 18.096 7.5307 18.0939L7.08548 18.0894L7.16562 17.6514C7.16935 17.631 7.17586 17.5883 7.18261 17.529C7.20213 17.3575 7.20773 17.1795 7.19163 17.0199C7.17207 16.826 7.12269 16.6956 7.06477 16.6468C6.92589 16.5288 6.77401 16.3879 6.46754 16.0968C6.13929 15.785 6.03552 15.6877 5.88523 15.5523L5.05323 14.6313C4.89386 14.4311 4.10427 13.0797 3.77991 12.609C3.65992 12.4352 3.60494 12.3661 3.1003 11.7443C3.07515 11.7133 3.07515 11.7133 3.04999 11.6822C2.63887 11.1743 2.41853 10.8792 2.28827 10.6348C2.05155 10.1826 2.0268 9.94711 2.10363 9.43541C2.22855 8.60085 3.05933 7.98249 3.93475 8.06659C4.46844 8.11697 4.85717 8.34631 5.49157 8.86537C5.57864 8.93641 5.67035 9.02548 5.77012 9.13318C5.8238 9.19113 5.87936 9.25399 5.93843 9.32322C5.95319 9.34052 5.97356 9.36481 5.99693 9.39288C5.978 9.28399 5.95805 9.17504 5.93467 9.05136C5.9021 8.87905 5.8688 8.71651 5.83467 8.56437C5.77231 8.28765 5.7324 8.12184 5.69157 7.96806C5.68437 7.94102 5.68437 7.94102 5.67709 7.9141C5.65522 7.83346 5.55252 7.46907 5.5582 7.48937C5.50406 7.29461 5.4587 7.11713 5.40698 6.90141C5.39538 6.85291 5.39538 6.85291 5.38388 6.80443C5.31703 6.51941 5.28057 6.36511 5.23897 6.19592C5.12131 5.70845 4.99154 5.04901 4.95452 4.68779C4.85757 3.75745 4.92176 3.00562 5.30672 2.55595C5.69435 2.10347 6.51216 1.96901 7.05777 2.2453C7.37195 2.40423 7.62236 2.68399 7.84086 3.05764C7.91175 3.17887 7.97625 3.30491 8.04086 3.44417C8.07817 3.52459 8.1807 3.75781 8.16678 3.72673C8.40871 4.26728 8.56826 4.88674 8.71084 5.78202C8.73669 5.9445 8.76684 6.12251 8.80258 6.32474C8.96033 6.14972 9.15697 6.01362 9.37167 5.94947C9.7316 5.84249 10.1257 5.8154 10.4696 5.88653C10.8755 5.96953 11.3018 6.25073 11.4849 6.56475C11.5134 6.61389 11.5402 6.66595 11.5653 6.72085C11.7729 6.44602 12.1596 6.20366 12.4502 6.15166C12.8165 6.08687 13.2154 6.07964 13.5519 6.14498C13.8791 6.20937 14.3071 6.53985 14.4733 6.79919C14.5741 6.95834 14.6564 7.19028 14.7241 7.47144Z" fill="black"/>
<path fill-rule="evenodd" clip-rule="evenodd" d="M5.33162 14.3799C5.04762 14.0209 4.70262 13.2869 4.08862 12.3959C3.74062 11.8919 2.87762 10.9429 2.62062 10.4609C2.39762 10.0349 2.42162 9.84395 2.47462 9.49095C2.56862 8.86295 3.21262 8.37395 3.89962 8.43995C4.41862 8.48895 4.85862 8.83195 5.25462 9.15595C5.49362 9.35095 5.78762 9.72995 5.96462 9.94395C6.12762 10.1399 6.16762 10.2209 6.34162 10.4529C6.57162 10.7599 6.64362 10.9119 6.55562 10.5739C6.48462 10.0779 6.36862 9.23095 6.20062 8.48195C6.07262 7.91395 6.04162 7.82495 5.91962 7.38895C5.79062 6.92495 5.72462 6.59995 5.60362 6.10795C5.51962 5.75995 5.36862 5.04895 5.32762 4.64895C5.27062 4.10195 5.24062 3.20995 5.59162 2.79995C5.86662 2.47895 6.49762 2.38195 6.88862 2.57995C7.40062 2.83895 7.69162 3.58295 7.82462 3.87995C8.06362 4.41395 8.21162 5.03095 8.34062 5.84095C8.50462 6.87195 8.80662 8.30295 8.81662 8.60395C8.82662 8.90495 8.74862 7.45795 8.81262 7.10395C8.87062 6.78295 9.14062 6.40995 9.47862 6.30895C9.76462 6.22395 10.0996 6.19295 10.3946 6.25395C10.7076 6.31795 11.0376 6.54195 11.1606 6.75295C11.5226 7.37695 11.5296 8.65195 11.5446 8.58395C11.6306 8.20795 11.6156 7.35495 11.8286 6.99995C11.9686 6.76595 12.3256 6.55495 12.5156 6.52095C12.8096 6.46895 13.1706 6.45295 13.4796 6.51295C13.7286 6.56195 14.0656 6.85795 14.1566 6.99995C14.3746 7.34395 14.4986 8.31695 14.5356 8.65795C14.5506 8.79895 14.6096 8.26595 14.8286 7.92195C15.2346 7.28295 16.6716 7.15895 16.7266 8.56095C16.7516 9.21495 16.7466 9.18495 16.7466 9.62495C16.7466 10.1419 16.7346 10.4529 16.7066 10.8269C16.6756 11.2269 16.5896 12.1309 16.4646 12.5689C16.3786 12.8699 16.0936 13.5469 15.8126 13.9529C15.8126 13.9529 14.7386 15.2029 14.6216 15.7659C14.5036 16.3279 14.5426 16.3319 14.5196 16.7309C14.4966 17.1289 14.6406 17.6529 14.6406 17.6529C14.6406 17.6529 13.8386 17.7569 13.4066 17.6879C13.0156 17.6249 12.5316 16.8469 12.4066 16.6089C12.2346 16.2809 11.8676 16.3439 11.7246 16.5859C11.4996 16.9689 11.0156 17.6559 10.6736 17.6989C10.0056 17.7829 8.61962 17.7299 7.53462 17.7189C7.53462 17.7189 7.71962 16.7079 7.30762 16.3609C7.00262 16.1019 6.47762 15.5769 6.16362 15.3009L5.33162 14.3799Z" fill="white" stroke="black" stroke-width="0.75"/>
<path d="M13.5664 14.75V11.25" stroke="black" stroke-width="0.75" stroke-linecap="round"/>
<path d="M11.5508 14.7461L11.5347 11.2461" stroke="black" stroke-width="0.75" stroke-linecap="round"/>
<path d="M9.55469 14.7501L9.57614 11.2501" stroke="black" stroke-width="0.75" stroke-linecap="round"/>
</g>
<defs>
<filter id="filter0_d_1315_798" x="0.938721" y="1.97742" width="17.3083" height="18.2682" filterUnits="userSpaceOnUse" color-interpolation-filters="sRGB">
<feFlood flood-opacity="0" result="BackgroundImageFix"/>
<feColorMatrix in="SourceAlpha" type="matrix" values="0 0 0 0 0 0 0 0 0 0 0 0 0 0 0 0 0 0 127 0" result="hardAlpha"/>
<feOffset dy="1"/>
<feGaussianBlur stdDeviation="0.75"/>
<feColorMatrix type="matrix" values="0 0 0 0 0 0 0 0 0 0 0 0 0 0 0 0 0 0 0.15 0"/>
<feBlend mode="normal" in2="BackgroundImageFix" result="effect1_dropShadow_1315_798"/>
<feBlend mode="normal" in="SourceGraphic" in2="effect1_dropShadow_1315_798" result="shape"/>
</filter>
<filter id="filter1_d_1315_798" x="1.43872" y="2.22742" width="16.3083" height="17.2682" filterUnits="userSpaceOnUse" color-interpolation-filters="sRGB">
<feFlood flood-opacity="0" result="BackgroundImageFix"/>
<feColorMatrix in="SourceAlpha" type="matrix" values="0 0 0 0 0 0 0 0 0 0 0 0 0 0 0 0 0 0 127 0" result="hardAlpha"/>
<feOffset dy="0.75"/>
<feGaussianBlur stdDeviation="0.5"/>
<feColorMatrix type="matrix" values="0 0 0 0 0 0 0 0 0 0 0 0 0 0 0 0 0 0 0.2 0"/>
<feBlend mode="normal" in2="BackgroundImageFix" result="effect1_dropShadow_1315_798"/>
<feBlend mode="normal" in="SourceGraphic" in2="effect1_dropShadow_1315_798" result="shape"/>
</filter>
</defs>
</svg>
